HIERARCHY
ROOT pelvis
{
  OFFSET 0 100 0
  CHANNELS 6 Xposition Yposition Zposition Zrotation Xrotation Yrotation
  JOINT pelvis_right_femur
  {
    OFFSET -10.78128 -3.44521 -0.5502486
    CHANNELS 3 Zrotation Xrotation Yrotation
    JOINT right_femur_tibia
    {
      OFFSET -0.8047443 -44.0398 -0.1307829
      CHANNELS 3 Zrotation Xrotation Yrotation
      JOINT right_tibia_foot
      {
        OFFSET 3.006224 -47.83518 -5
        CHANNELS 3 Zrotation Xrotation Yrotation
        End Site
        {
          OFFSET 0 -5 15
        }
      }
    }
  }
  JOINT pelvis_left_femur
  {
    OFFSET 10.78128 -3.44521 -0.5502486
    CHANNELS 3 Zrotation Xrotation Yrotation
    JOINT left_femur_tibia
    {
      OFFSET 0.8047443 -44.0398 -0.1307829
      CHANNELS 3 Zrotation Xrotation Yrotation
      JOINT left_tibia_foot
      {
        OFFSET -4.370144 -48.10324 -4.275266
        CHANNELS 3 Zrotation Xrotation Yrotation
        End Site
        {
          OFFSET 0 -5 15
        }
      }
    }
  }
  JOINT pelvis_spine1
  {
    OFFSET 0 6.468898 -3.129235
    CHANNELS 3 Zrotation Xrotation Yrotation
    JOINT spine1
    {
      OFFSET 0 23.15396 4.99043
      CHANNELS 3 Zrotation Xrotation Yrotation
      JOINT spine2
      {
        OFFSET 0 20.79997 -5.064912
        CHANNELS 3 Zrotation Xrotation Yrotation
        JOINT neck
        {
          OFFSET 0 14.38658 9.616178
          CHANNELS 3 Zrotation Xrotation Yrotation
          End Site
          {
            OFFSET 0 20 0
          }
        }
      }
      JOINT right_manubrium
      {
        OFFSET -5.722621 16.35077 3.967754
        CHANNELS 3 Zrotation Xrotation Yrotation
        JOINT right_clavicle
        {
          OFFSET -13.16364 1.694482 -4.693211
          CHANNELS 3 Zrotation Xrotation Yrotation
          JOINT right_humerus
          {
            OFFSET -28.5034 -0.3100689 -2.792744
            CHANNELS 3 Zrotation Xrotation Yrotation
            JOINT right_radius
            {
              OFFSET -25.15693 0.02248979 -1.271978
              CHANNELS 3 Zrotation Xrotation Yrotation
              End Site
              {
                OFFSET -15 0 0
              }
            }
          }
        }
      }
      JOINT left_manubrium
      {
        OFFSET 5.722621 16.35077 3.967754
        CHANNELS 3 Zrotation Xrotation Yrotation
        JOINT left_clavicle
        {
          OFFSET 13.16364 1.694482 -4.693211
          CHANNELS 3 Zrotation Xrotation Yrotation
          JOINT left_humerus
          {
            OFFSET 29.39168 -1.063119 -2.237045
            CHANNELS 3 Zrotation Xrotation Yrotation
            JOINT left_radius
            {
              OFFSET 24.59957 -0.9528479 0.9047498
              CHANNELS 3 Zrotation Xrotation Yrotation
              End Site
              {
                OFFSET 15 -0 -0
              }
            }
          }
        }
      }
    }
  }
}
MOTION
Frames: 17
Frame Time: 0.0416666666667
52.77153 101.1373 269.8391 4.17464 -9.692826 5.427867 -2.363636 10.96317 4.930634 -0 47.53038 -0 6.109874 -8.802051 -4.294761 -6.257586 -6.699774 -9.732707 -0 24.03981 -0 -7.106734 -9.961271 17.47668 -2.594832 -1.283163 7.097791 -1.988115 8.795298 -2.890948 2.126797 23.15374 5.821626 1.153405 -14.8612 8.507699 1.439376 -18.1136 9.932319 85.56479 21.35575 -11.44349 -0 0 20.68366 -24.56913 13.62144 11.94063 4.246333 -13.55351 -3.780089 -90.39251 25.33175 20.25165 0 0 -10.17422 -3.818767 6.389049 17.50359
54.08057 102.1501 275.5868 4.167204 -9.863936 6.665484 -2.17092 4.903268 4.016332 -0 48.58454 -0 5.358678 -8.487106 -5.366268 -6.521676 -1.325545 -10.1018 -0 22.6362 -0 -6.960241 -11.27981 16.79571 -2.621599 -0.9189849 5.888175 -1.698177 8.674627 -3.615526 2.068171 23.52791 5.940265 0.928515 -14.61868 8.812807 1.504392 -17.0934 9.671925 86.93389 21.7495 -13.08687 -0 0 18.75105 -23.69284 13.62847 11.37577 4.344562 -14.47115 -4.093965 -88.38837 25.77406 16.76617 0 0 -11.95338 -3.115617 6.852098 16.62737
55.29681 102.9095 281.0618 4.130294 -9.81218 8.000441 -2.029825 -1.367313 3.27778 -0 46.57773 -0 4.48493 -8.415654 -6.315073 -6.551862 3.847124 -10.37005 -0 20.87983 -0 -6.876848 -12.65373 16.04424 -2.631803 -0.5652783 4.662965 -1.34729 8.468043 -4.453321 2.079671 23.83898 5.997195 0.7493213 -14.39887 9.087511 1.335053 -16.0709 9.35415 88.27164 22.10709 -14.78251 -0 0 16.94103 -22.78576 13.57674 10.80977 4.585812 -15.51485 -4.400924 -86.29141 26.10052 12.95268 0 0 -14.12462 -2.304057 7.384365 15.55176
56.42481 103.2374 286.4228 4.114103 -9.512152 9.335409 -2.049688 -7.281418 2.725725 -0 41.73339 -0 3.509818 -8.466197 -7.131441 -6.464991 8.589526 -10.57865 -0 19.15776 -0 -6.85028 -14.07179 15.24439 -2.702282 -0.3054761 3.56593 -0.9616814 8.167859 -5.315488 2.197245 24.04201 5.951972 0.6412835 -14.24923 9.301584 0.9543283 -15.03365 8.983457 89.49242 22.39101 -16.48537 -0 0 15.21579 -21.87081 13.45031 10.21432 4.963251 -16.61516 -4.650796 -84.22375 26.29528 9.044976 0 0 -16.55269 -1.419764 7.969787 14.31596
57.46911 103.0581 291.818 4.114983 -9.030215 10.57452 -2.169746 -12.45626 2.300897 -0 35.03239 -0 2.454005 -8.631878 -7.823904 -6.3194 12.79177 -10.729 -0 17.87968 -0 -6.890033 -15.44782 14.45048 -2.828104 -0.1492533 2.679205 -0.5695083 7.803748 -6.092798 2.399926 24.14042 5.807045 0.599216 -14.19611 9.436099 0.470739 -13.9993 8.613219 90.56024 22.60656 -18.12978 -0 0 13.49183 -20.9373 13.26041 9.554667 5.418974 -17.71332 -4.801713 -82.30534 26.36283 5.282812 0 0 -19.0488 -0.4910126 8.585328 12.98087
58.42951 102.4421 297.3455 4.104573 -8.497206 11.63826 -2.21966 -16.59556 1.94052 -0 27.98292 -0 1.337475 -8.978513 -8.409316 -6.13249 16.39797 -10.8006 -0 17.50498 -0 -7.015296 -16.62398 13.74516 -2.942709 -0.06462994 2.04582 -0.1988018 7.4316 -6.660881 2.62884 24.17036 5.592636 0.5980962 -14.25397 9.478278 0.04570662 -13.01276 8.323686 91.46842 22.78519 -19.62767 -0 0 11.66298 -19.9516 13.03405 8.7921 5.858306 -18.74685 -4.817254 -80.66216 26.32932 1.930727 0 0 -21.37047 0.4540696 9.204277 11.62764
59.30285 101.56 303.0691 4.049337 -8.029591 12.4751 -2.05098 -19.52607 1.673271 -0 21.79518 -0 0.190009 -9.486393 -8.893496 -5.887253 19.35467 -10.78959 -0 18.34704 -0 -7.232198 -17.42556 13.20663 -2.98233 -0.03465992 1.647161 0.1343108 7.100806 -6.975577 2.840638 24.17433 5.336815 0.6180672 -14.41557 9.428013 -0.230641 -12.1231 8.146568 92.22147 22.95255 -20.89928 -0 0 9.724078 -18.90567 12.7892 7.93277 6.212078 -19.63951 -4.691377 -79.39605 26.24392 -0.7968154 0 0 -23.30549 1.37879 9.803202 10.33641
60.09133 100.6287 309.0449 3.901126 -7.734487 13.07899 -1.535499 -21.09582 1.657344 -0 17.44012 -0 -0.9316644 -9.973766 -9.247981 -5.515212 21.53344 -10.72421 -0 20.66182 -0 -7.535883 -17.60371 12.93326 -2.890185 -0.0783301 1.392881 0.4213034 6.855709 -7.093886 3.018196 24.2041 5.058303 0.6509077 -14.64851 9.29669 -0.3579981 -11.39103 8.049971 92.82137 23.1198 -21.84688 -0 0 7.82478 -17.83213 12.53228 7.048827 6.435881 -20.26285 -4.450545 -78.63175 26.17703 -2.670292 0 0 -24.6174 2.220082 10.35849 9.20688
60.80739 99.87155 315.3177 3.634594 -7.694975 13.48485 -0.6137442 -21.19771 2.028678 -0 15.48415 -0 -1.970345 -10.26155 -9.432614 -4.964588 22.76735 -10.63457 -0 24.58388 -0 -7.90094 -16.97226 13.01926 -2.636997 -0.2072286 1.196542 0.6561965 6.73112 -7.096874 3.158816 24.30539 4.770156 0.6944079 -14.91358 9.101061 -0.3711406 -10.87683 7.988961 93.25579 23.29217 -22.37743 -0 0 6.158208 -16.78307 12.26473 6.231369 6.501092 -20.50537 -4.137396 -78.46787 26.19317 -3.513439 0 0 -25.10839 2.91105 10.85386 8.33016
61.47379 99.46206 321.8642 3.311908 -7.945896 13.72535 0.5823705 -19.84575 2.709313 -0 15.54804 -0 -2.910328 -10.39299 -9.436783 -4.323646 22.82887 -10.50197 -0 29.93076 -0 -8.239726 -15.63557 13.52134 -2.270519 -0.3509284 1.075189 0.8327965 6.747007 -7.01183 3.26715 24.49903 4.484646 0.7485821 -15.17706 8.863136 -0.3027125 -10.63904 7.956473 93.46715 23.47633 -22.42147 -0 0 4.875954 -15.82977 11.97984 5.557899 6.397598 -20.37062 -3.808734 -78.90885 26.31421 -3.317759 0 0 -24.71124 3.403671 11.2864 7.75225
62.12054 99.47279 328.5367 3.064649 -8.494155 13.79157 1.771237 -17.1205 3.458476 -0 16.52083 -0 -3.768642 -10.59762 -9.277985 -3.802934 21.37971 -10.26271 -0 36.25786 -0 -8.40694 -13.92665 14.47026 -1.902225 -0.3616109 1.134843 0.9410165 6.916676 -6.815645 3.35074 24.79027 4.216382 0.814828 -15.40728 8.610094 -0.1807101 -10.7497 7.97998 93.3498 23.67879 -21.90379 -0 0 4.118153 -15.07033 11.66325 5.10706 6.127497 -19.94665 -3.534162 -79.91053 26.5214 -2.174897 0 0 -23.42934 3.657152 11.65838 7.494563
62.77136 99.88454 335.1195 2.973157 -9.276115 13.64815 2.727224 -13.21697 4.070777 -0 17.44339 -0 -4.553233 -11.03448 -8.978711 -3.523041 18.29868 -9.90031 -0 42.85834 -0 -8.328348 -12.15753 15.80264 -1.623979 -0.1554239 1.440137 0.9719789 7.21633 -6.486035 3.414456 25.15918 3.976543 0.8926394 -15.59137 8.361759 -0.03547496 -11.22747 8.078612 92.85526 23.89181 -20.81231 -0 0 3.95002 -14.57995 11.3091 4.931909 5.729499 -19.33501 -3.346434 -81.39644 26.76055 -0.2309454 0 0 -21.3649 3.66752 11.97388 7.535964
63.43262 100.5929 341.4375 3.03751 -10.10069 13.294 3.322992 -8.486869 4.421164 -0 17.70513 -0 -5.235741 -11.693 -8.541503 -3.439229 13.78957 -9.493802 -0 48.43689 -0 -8.030199 -10.58356 17.31916 -1.492367 0.2258499 1.967906 0.9149214 7.554038 -6.015476 3.456962 25.54524 3.774232 0.9773784 -15.74358 8.128481 0.08333732 -12.01242 8.24428 92.02942 24.0867 -19.21922 -0 0 4.363525 -14.4203 10.92106 5.07477 5.308233 -18.63836 -3.22279 -83.24134 26.94508 2.313923 0 0 -18.75187 3.481743 12.23653 7.797496
64.10098 101.4139 347.4099 3.219426 -10.74241 12.78569 3.520458 -3.331556 4.455048 -0 16.96694 -0 -5.779789 -12.48484 -7.955401 -3.437013 8.224827 -9.147079 -0 51.57741 -0 -7.571847 -9.396415 18.79367 -1.528524 0.6811504 2.649031 0.7636743 7.817819 -5.410146 3.471537 25.87519 3.619797 1.062192 -15.89117 7.916618 0.1199931 -13.0153 8.452379 90.96106 24.22796 -17.2335 -0 0 5.320146 -14.63765 10.50449 5.568686 4.984625 -17.9444 -3.119817 -85.29527 26.99054 5.244972 0 0 -15.86379 3.169801 12.44982 8.179219
64.78389 102.13 353.0431 3.429789 -11.08452 12.18787 3.414005 1.901461 4.185942 -0 15.32891 -0 -6.196416 -13.34067 -7.216192 -3.378119 2.092049 -8.906209 -0 51.56523 -0 -7.027153 -8.630591 20.11554 -1.673016 1.115881 3.387007 0.534865 7.948545 -4.706159 3.443298 26.10068 3.531251 1.139508 -16.0639 7.734394 0.03620926 -14.16833 8.669293 89.73442 24.28873 -14.96415 -0 0 6.774059 -15.23 10.06393 6.418126 4.822986 -17.28412 -3.003858 -87.42331 26.84766 8.386643 0 0 -12.90601 2.802216 12.61934 8.600981
65.51162 102.5381 358.4192 3.510708 -11.0894 11.52919 3.193655 6.867399 3.630026 -0 13.26054 -0 -6.5468 -14.21364 -6.323826 -3.078683 -3.96861 -8.750695 -0 48.1647 -0 -6.503985 -8.202005 21.26383 -1.784587 1.439742 4.049539 0.2664595 7.930192 -3.96959 3.346936 26.18809 3.540116 1.200847 -16.29926 7.596037 -0.2010319 -15.42416 8.849609 88.42694 24.251 -12.52208 -0 0 8.687477 -16.16665 9.602303 7.617284 4.845764 -16.64227 -2.84648 -89.49182 26.4951 11.58753 0 0 -10.04095 2.457442 12.75363 8.992477
66.32726 102.4898 363.6597 3.366111 -10.77788 10.82511 2.999729 11.32828 2.812258 -0 11.26511 -0 -6.884504 -15.02883 -5.292248 -2.46317 -9.4318 -8.636115 -0 41.74195 -0 -6.077019 -8.001536 22.22815 -1.762443 1.601956 4.547481 -0.008294565 7.78524 -3.261094 3.176349 26.1314 3.662367 1.24887 -16.62177 7.512803 -0.5958609 -16.73462 8.957828 87.12062 24.10831 -10.03107 -0 0 10.96395 -17.38278 9.115889 9.109892 5.031916 -16.00853 -2.640631 -91.39379 25.94447 14.71884 0 0 -7.372485 2.19407 12.86149 9.308317
